<svg width="18" height="18" viewBox="0 0 180 180" fill="none" xmlns="http://www.w3.org/2000/svg">
  <!-- Central hub node -->
  <circle cx="90" cy="90" r="22" stroke="#000000" stroke-width="6"/>
  <circle cx="90" cy="90" r="13" fill="#000000" opacity="0.4"/>
  <path d="M90 66 L94 76 H86 Z" fill="#000000"/>
  <path d="M90 114 L86 104 H94 Z" fill="#000000"/>
  <path d="M66 90 L76 86 V94 Z" fill="#000000"/>
  <path d="M114 90 L104 94 V86 Z" fill="#000000"/>
  <!-- Top-left server node -->
  <line x1="76" y1="76" x2="52" y2="52" stroke="#000000" stroke-width="5" stroke-linecap="round"/>
  <rect x="28" y="28" width="28" height="28" rx="6" stroke="#000000" stroke-width="5"/>
  <line x1="35" y1="39" x2="49" y2="39" stroke="#000000" stroke-width="3.5" stroke-linecap="round"/>
  <circle cx="50" cy="47" r="3" fill="#000000"/>
  <!-- Top-right server node -->
  <line x1="103" y1="76" x2="128" y2="52" stroke="#000000" stroke-width="5" stroke-linecap="round"/>
  <rect x="124" y="28" width="28" height="28" rx="6" stroke="#000000" stroke-width="5"/>
  <line x1="131" y1="39" x2="145" y2="39" stroke="#000000" stroke-width="3.5" stroke-linecap="round"/>
  <circle cx="146" cy="47" r="3" fill="#000000"/>
  <!-- Bottom-left server node -->
  <line x1="76" y1="104" x2="52" y2="128" stroke="#000000" stroke-width="5" stroke-linecap="round"/>
  <rect x="28" y="124" width="28" height="28" rx="6" stroke="#000000" stroke-width="5"/>
  <line x1="35" y1="135" x2="49" y2="135" stroke="#000000" stroke-width="3.5" stroke-linecap="round"/>
  <circle cx="50" cy="143" r="3" fill="#000000"/>
  <!-- Bottom-right server node -->
  <line x1="103" y1="104" x2="128" y2="128" stroke="#000000" stroke-width="5" stroke-linecap="round"/>
  <rect x="124" y="124" width="28" height="28" rx="6" stroke="#000000" stroke-width="5"/>
  <line x1="131" y1="135" x2="145" y2="135" stroke="#000000" stroke-width="3.5" stroke-linecap="round"/>
  <circle cx="146" cy="143" r="3" fill="#000000"/>
</svg>
