<svg width="180" height="180" viewBox="0 0 180 180" fill="none" xmlns="http://www.w3.org/2000/svg">
  <!-- Central hub node -->
  <circle cx="90" cy="90" r="22" stroke="#548af7" stroke-width="5"/>
  <circle cx="90" cy="90" r="13" fill="#548af7" opacity="0.35"/>
  <path d="M90 66 L94 76 H86 Z" fill="#548af7"/>
  <path d="M90 114 L86 104 H94 Z" fill="#548af7"/>
  <path d="M66 90 L76 86 V94 Z" fill="#548af7"/>
  <path d="M114 90 L104 94 V86 Z" fill="#548af7"/>
  <!-- Top-left server node (green) -->
  <line x1="76" y1="76" x2="52" y2="52" stroke="#5ec26a" stroke-width="4" stroke-linecap="round"/>
  <rect x="28" y="28" width="28" height="28" rx="6" stroke="#5ec26a" stroke-width="4"/>
  <line x1="35" y1="39" x2="49" y2="39" stroke="#5ec26a" stroke-width="3" stroke-linecap="round"/>
  <circle cx="50" cy="47" r="2.5" fill="#5ec26a"/>
  <!-- Top-right server node (blue) -->
  <line x1="103" y1="76" x2="128" y2="52" stroke="#56a8f5" stroke-width="4" stroke-linecap="round"/>
  <rect x="124" y="28" width="28" height="28" rx="6" stroke="#56a8f5" stroke-width="4"/>
  <line x1="131" y1="39" x2="145" y2="39" stroke="#56a8f5" stroke-width="3" stroke-linecap="round"/>
  <circle cx="146" cy="47" r="2.5" fill="#56a8f5"/>
  <!-- Bottom-left server node (yellow) -->
  <line x1="76" y1="104" x2="52" y2="128" stroke="#f5d26a" stroke-width="4" stroke-linecap="round"/>
  <rect x="28" y="124" width="28" height="28" rx="6" stroke="#f5d26a" stroke-width="4"/>
  <line x1="35" y1="135" x2="49" y2="135" stroke="#f5d26a" stroke-width="3" stroke-linecap="round"/>
  <circle cx="50" cy="143" r="2.5" fill="#f5d26a"/>
  <!-- Bottom-right server node (red) -->
  <line x1="103" y1="104" x2="128" y2="128" stroke="#fa6675" stroke-width="4" stroke-linecap="round"/>
  <rect x="124" y="124" width="28" height="28" rx="6" stroke="#fa6675" stroke-width="4"/>
  <line x1="131" y1="135" x2="145" y2="135" stroke="#fa6675" stroke-width="3" stroke-linecap="round"/>
  <circle cx="146" cy="143" r="2.5" fill="#fa6675"/>
</svg>
