<svg width="180" height="180" viewBox="0 0 180 180" fill="none" xmlns="http://www.w3.org/2000/svg">
  <rect width="180" height="180" rx="28" fill="#1e1e2e"/>
  <!-- Central hub node -->
  <circle cx="90" cy="90" r="22" fill="#7c7cf0" opacity="0.15"/>
  <circle cx="90" cy="90" r="22" stroke="#7c7cf0" stroke-width="3.5"/>
  <!-- Inner gear teeth on hub to represent "manager" -->
  <circle cx="90" cy="90" r="14" fill="#7c7cf0" opacity="0.3"/>
  <path d="M90 68 L93 75 H87 Z" fill="#7c7cf0"/>
  <path d="M90 112 L87 105 H93 Z" fill="#7c7cf0"/>
  <path d="M68 90 L75 87 V93 Z" fill="#7c7cf0"/>
  <path d="M112 90 L105 93 V87 Z" fill="#7c7cf0"/>
  <!-- Top-left server node -->
  <line x1="77" y1="78" x2="52" y2="52" stroke="#50d080" stroke-width="2.5" stroke-linecap="round" stroke-dasharray="4 3"/>
  <rect x="28" y="28" width="28" height="28" rx="6" fill="#50d080" opacity="0.12"/>
  <rect x="28" y="28" width="28" height="28" rx="6" stroke="#50d080" stroke-width="2.5"/>
  <line x1="35" y1="38" x2="49" y2="38" stroke="#50d080" stroke-width="2" stroke-linecap="round"/>
  <line x1="35" y1="43" x2="44" y2="43" stroke="#50d080" stroke-width="2" stroke-linecap="round" opacity="0.5"/>
  <circle cx="50" cy="47" r="2" fill="#50d080"/>
  <!-- Top-right server node -->
  <line x1="103" y1="78" x2="128" y2="52" stroke="#60a0f0" stroke-width="2.5" stroke-linecap="round" stroke-dasharray="4 3"/>
  <rect x="124" y="28" width="28" height="28" rx="6" fill="#60a0f0" opacity="0.12"/>
  <rect x="124" y="28" width="28" height="28" rx="6" stroke="#60a0f0" stroke-width="2.5"/>
  <line x1="131" y1="38" x2="145" y2="38" stroke="#60a0f0" stroke-width="2" stroke-linecap="round"/>
  <line x1="131" y1="43" x2="140" y2="43" stroke="#60a0f0" stroke-width="2" stroke-linecap="round" opacity="0.5"/>
  <circle cx="146" cy="47" r="2" fill="#60a0f0"/>
  <!-- Bottom-left server node -->
  <line x1="77" y1="102" x2="52" y2="128" stroke="#e0c050" stroke-width="2.5" stroke-linecap="round" stroke-dasharray="4 3"/>
  <rect x="28" y="124" width="28" height="28" rx="6" fill="#e0c050" opacity="0.12"/>
  <rect x="28" y="124" width="28" height="28" rx="6" stroke="#e0c050" stroke-width="2.5"/>
  <line x1="35" y1="134" x2="49" y2="134" stroke="#e0c050" stroke-width="2" stroke-linecap="round"/>
  <line x1="35" y1="139" x2="44" y2="139" stroke="#e0c050" stroke-width="2" stroke-linecap="round" opacity="0.5"/>
  <circle cx="50" cy="143" r="2" fill="#e0c050"/>
  <!-- Bottom-right server node -->
  <line x1="103" y1="102" x2="128" y2="128" stroke="#f06060" stroke-width="2.5" stroke-linecap="round" stroke-dasharray="4 3"/>
  <rect x="124" y="124" width="28" height="28" rx="6" fill="#f06060" opacity="0.12"/>
  <rect x="124" y="124" width="28" height="28" rx="6" stroke="#f06060" stroke-width="2.5"/>
  <line x1="131" y1="134" x2="145" y2="134" stroke="#f06060" stroke-width="2" stroke-linecap="round"/>
  <line x1="131" y1="139" x2="140" y2="139" stroke="#f06060" stroke-width="2" stroke-linecap="round" opacity="0.5"/>
  <circle cx="146" cy="143" r="2" fill="#f06060"/>
</svg>
